<svg width="200.000000" height="200.000000" viewBox="0 0 200 200" fill="none" xmlns="http://www.w3.org/2000/svg" xmlns:xlink="http://www.w3.org/1999/xlink">
	<desc>
			Created with Pixso.
	</desc>
	<defs>
		<clipPath id="clip2_8">
			<rect id="爱心" width="56.000000" height="56.000027" transform="translate(61.086227 65.754181)" fill="white" fill-opacity="0"/>
		</clipPath>
		<clipPath id="clip2_10">
			<rect id="系统推送" width="27.000000" height="26.999994" transform="translate(122.086227 105.754181)" fill="white" fill-opacity="0"/>
		</clipPath>
		<clipPath id="clip2_4">
			<rect id="医院" width="120.000000" height="120.000015" transform="translate(43.086227 39.754181)" fill="white" fill-opacity="0"/>
		</clipPath>
		<clipPath id="clip2_2">
			<rect id="hspIcion" width="200.000000" height="200.000000" fill="white" fill-opacity="0"/>
		</clipPath>
	</defs>
	<g opacity="0.660000">
		<g clip-path="url(#clip2_2)">
			<path id="path" d="M99.69 183.65C53.34 183.65 15.63 145.91 15.63 99.53C15.63 53.14 53.34 15.41 99.69 15.41C146.04 15.41 183.76 53.15 183.76 99.53C183.76 145.91 146.05 183.65 99.69 183.65ZM99.69 24.29C58.24 24.29 24.52 58.04 24.52 99.53C24.52 141.01 58.24 174.75 99.69 174.75C141.14 174.75 174.86 141.01 174.86 99.53C174.86 58.04 141.14 24.29 99.69 24.29Z" fill="#417EDE" fill-opacity="1.000000" fill-rule="nonzero"/>
			<g clip-path="url(#clip2_8)">
				<path id="path" d="M66.11 83.15L66.11 83.15L72.86 89.08C72.93 89.14 73 89.19 73.07 89.24C73.15 89.28 73.23 89.32 73.31 89.35C73.39 89.38 73.48 89.41 73.57 89.43C73.65 89.44 73.74 89.45 73.83 89.45C73.92 89.45 74 89.45 74.09 89.43C74.18 89.42 74.26 89.4 74.35 89.37C74.43 89.34 74.51 89.3 74.59 89.26C74.66 89.22 74.74 89.17 74.8 89.11L81.76 83.38C81.84 83.33 81.91 83.27 81.98 83.21C82.05 83.16 82.12 83.1 82.18 83.03C82.25 82.97 82.32 82.91 82.38 82.85C82.44 82.78 82.51 82.71 82.57 82.65C82.63 82.58 82.68 82.51 82.74 82.44C82.8 82.37 82.85 82.29 82.9 82.22C82.96 82.14 83.01 82.07 83.05 81.99C83.1 81.91 83.15 81.84 83.19 81.76C83.24 81.68 83.28 81.6 83.32 81.52C83.36 81.43 83.4 81.35 83.43 81.27C83.47 81.18 83.5 81.1 83.53 81.01C83.56 80.93 83.59 80.84 83.62 80.75C83.64 80.67 83.67 80.58 83.69 80.49C83.71 80.4 83.73 80.31 83.75 80.22C83.76 80.14 83.78 80.05 83.79 79.96C83.8 79.87 83.81 79.78 83.82 79.68C83.82 79.59 83.83 79.5 83.83 79.41C83.83 79.32 83.83 79.23 83.83 79.14C83.82 79.05 83.82 78.96 83.81 78.87C83.8 78.78 83.79 78.69 83.78 78.6C83.77 78.51 83.75 78.42 83.74 78.33C83.72 78.24 83.7 78.15 83.68 78.06C83.65 77.97 83.63 77.89 83.6 77.8C83.57 77.71 83.55 77.63 83.51 77.54C83.48 77.46 83.45 77.37 83.41 77.29C83.38 77.21 83.34 77.12 83.3 77.04C83.26 76.96 83.21 76.88 83.17 76.8C83.12 76.72 83.08 76.65 83.03 76.57C82.98 76.49 82.93 76.42 82.87 76.34C82.82 76.27 82.76 76.2 82.71 76.13C82.65 76.06 82.59 75.99 82.53 75.92C82.47 75.85 82.41 75.79 82.34 75.72C82.28 75.66 82.21 75.6 82.14 75.54C82.08 75.47 82.01 75.42 81.94 75.36C81.87 75.3 81.79 75.25 81.72 75.19C81.65 75.14 81.57 75.09 81.49 75.04C81.42 74.99 81.34 74.95 81.26 74.9C81.18 74.86 81.1 74.81 81.02 74.77C80.94 74.73 80.85 74.7 80.77 74.66C80.69 74.62 80.6 74.59 80.52 74.56C80.43 74.53 80.35 74.5 80.26 74.47C80.17 74.45 80.09 74.42 80 74.4C79.91 74.38 79.82 74.36 79.73 74.34C79.64 74.32 79.55 74.31 79.46 74.3C79.37 74.28 79.28 74.27 79.19 74.27C79.1 74.26 79.01 74.25 78.92 74.25C78.83 74.25 78.74 74.25 78.65 74.25C78.56 74.25 78.46 74.26 78.37 74.27C78.28 74.27 78.19 74.28 78.1 74.29C78.01 74.31 77.92 74.32 77.83 74.34C77.75 74.36 77.66 74.37 77.57 74.4C77.48 74.42 77.39 74.44 77.31 74.47C77.22 74.5 77.13 74.52 77.05 74.56C76.96 74.59 76.88 74.62 76.79 74.66C76.71 74.69 76.63 74.73 76.55 74.77C76.46 74.81 76.38 74.85 76.3 74.9C76.23 74.94 76.15 74.99 76.07 75.04C75.99 75.08 75.92 75.14 75.84 75.19C75.77 75.24 75.7 75.3 75.63 75.35C75.56 75.41 75.49 75.47 75.42 75.53C75.35 75.59 75.28 75.65 75.22 75.71C75.16 75.78 75.09 75.84 75.03 75.91C74.97 75.98 74.91 76.05 74.85 76.12C74.8 76.19 74.74 76.26 74.69 76.33L74.08 77.17L73.47 76.34C73.42 76.26 73.37 76.19 73.31 76.12C73.26 76.06 73.2 75.99 73.14 75.92C73.08 75.86 73.02 75.79 72.96 75.73C72.89 75.67 72.83 75.6 72.76 75.55C72.7 75.49 72.63 75.43 72.56 75.37C72.49 75.32 72.42 75.26 72.35 75.21C72.27 75.16 72.2 75.11 72.13 75.06C72.05 75.01 71.98 74.97 71.9 74.92C71.82 74.88 71.74 74.83 71.66 74.79C71.58 74.75 71.5 74.72 71.42 74.68C71.34 74.64 71.26 74.61 71.18 74.58C71.09 74.55 71.01 74.52 70.92 74.49C70.84 74.46 70.75 74.44 70.67 74.42C70.58 74.39 70.5 74.37 70.41 74.36C70.32 74.34 70.23 74.32 70.15 74.31C70.06 74.3 69.97 74.28 69.88 74.28C69.79 74.27 69.7 74.26 69.62 74.26C69.53 74.25 69.44 74.25 69.35 74.25C69.26 74.25 69.17 74.25 69.08 74.26C68.99 74.27 68.91 74.27 68.82 74.28C68.73 74.29 68.64 74.31 68.55 74.32C68.46 74.33 68.38 74.35 68.29 74.37C68.2 74.39 68.12 74.41 68.03 74.44C67.95 74.46 67.86 74.49 67.78 74.51C67.69 74.54 67.61 74.57 67.53 74.6C67.44 74.64 67.36 74.67 67.28 74.71C67.2 74.75 67.12 74.79 67.04 74.83C66.96 74.87 66.89 74.91 66.81 74.96C66.73 75 66.66 75.05 66.58 75.1C66.51 75.15 66.44 75.2 66.37 75.25C66.29 75.31 66.22 75.36 66.16 75.42C66.09 75.47 66.02 75.53 65.96 75.59C65.89 75.65 65.83 75.72 65.76 75.78C65.7 75.84 65.64 75.91 65.58 75.98C65.52 76.04 65.47 76.11 65.41 76.18C65.36 76.25 65.3 76.32 65.25 76.39C65.2 76.47 65.15 76.54 65.11 76.62C65.06 76.69 65.01 76.77 64.97 76.85C64.93 76.92 64.89 77 64.85 77.08C64.81 77.16 64.77 77.24 64.74 77.32C64.7 77.41 64.67 77.49 64.64 77.57C64.61 77.66 64.58 77.74 64.55 77.83C64.53 77.91 64.5 78 64.48 78.08C64.46 78.17 64.44 78.26 64.42 78.34C64.41 78.43 64.39 78.52 64.38 78.61C64.37 78.69 64.36 78.78 64.35 78.87C64.34 78.96 64.34 79.05 64.33 79.14C64.33 79.23 64.33 79.32 64.33 79.4C64.33 79.49 64.34 79.58 64.35 79.67C64.35 79.76 64.36 79.85 64.37 79.94C64.38 80.02 64.4 80.11 64.41 80.2C64.43 80.29 64.45 80.37 64.47 80.46C64.49 80.55 64.51 80.63 64.53 80.72C64.56 80.8 64.59 80.89 64.62 80.97C64.65 81.06 64.68 81.14 64.71 81.22C64.74 81.3 64.78 81.39 64.82 81.47C64.86 81.55 64.9 81.63 64.94 81.7C64.98 81.78 65.03 81.86 65.07 81.94C65.12 82.01 65.17 82.09 65.22 82.16C65.27 82.23 65.32 82.3 65.37 82.38C65.43 82.45 65.48 82.51 65.54 82.58C65.6 82.65 65.66 82.72 65.72 82.78C65.78 82.85 65.84 82.91 65.91 82.97C65.97 83.03 66.04 83.09 66.11 83.15ZM62.83 79.3C62.83 79.14 62.84 78.98 62.85 78.82C62.86 78.66 62.88 78.49 62.9 78.33C62.93 78.17 62.96 78.02 62.99 77.86C63.03 77.7 63.07 77.54 63.12 77.39C63.16 77.23 63.22 77.08 63.28 76.93C63.33 76.78 63.4 76.63 63.47 76.48C63.54 76.34 63.61 76.2 63.69 76.05C63.77 75.91 63.86 75.78 63.95 75.64C64.04 75.51 64.13 75.38 64.23 75.25C64.33 75.12 64.44 75 64.55 74.88C64.66 74.76 64.77 74.65 64.89 74.53C65.01 74.42 65.13 74.32 65.25 74.21C65.38 74.11 65.51 74.02 65.64 73.92C65.77 73.83 65.91 73.74 66.05 73.66C66.19 73.58 66.33 73.5 66.48 73.43C66.62 73.36 66.77 73.29 66.92 73.23C67.07 73.17 67.22 73.11 67.37 73.06C67.53 73.01 67.68 72.97 67.84 72.93C68 72.89 68.16 72.86 68.32 72.84C68.48 72.81 68.64 72.79 68.8 72.78C68.96 72.76 69.12 72.75 69.28 72.75C69.44 72.75 69.61 72.75 69.77 72.76C69.93 72.77 70.09 72.79 70.25 72.81C70.41 72.83 70.57 72.86 70.73 72.89C70.89 72.92 71.04 72.96 71.2 73.01C71.36 73.05 71.51 73.1 71.66 73.16C71.81 73.21 71.96 73.28 72.11 73.34C72.26 73.41 72.4 73.48 72.54 73.56C72.68 73.64 72.82 73.72 72.96 73.81C73.09 73.9 73.23 73.99 73.36 74.09C73.48 74.19 73.61 74.29 73.73 74.4C73.85 74.51 73.97 74.62 74.08 74.73C74.19 74.62 74.31 74.51 74.43 74.4C74.55 74.29 74.68 74.19 74.81 74.09C74.94 73.99 75.07 73.9 75.2 73.81C75.34 73.72 75.48 73.64 75.62 73.56C75.76 73.48 75.91 73.41 76.05 73.34C76.2 73.28 76.35 73.21 76.5 73.16C76.65 73.1 76.81 73.05 76.96 73.01C77.12 72.96 77.28 72.92 77.43 72.89C77.59 72.86 77.75 72.83 77.91 72.81C78.07 72.79 78.23 72.77 78.39 72.76C78.56 72.75 78.72 72.75 78.88 72.75C79.04 72.75 79.2 72.76 79.36 72.78C79.53 72.79 79.69 72.81 79.85 72.84C80.01 72.86 80.16 72.89 80.32 72.93C80.48 72.97 80.63 73.01 80.79 73.06C80.94 73.11 81.09 73.17 81.24 73.23C81.39 73.29 81.54 73.36 81.69 73.43C81.83 73.5 81.97 73.58 82.11 73.66C82.25 73.74 82.39 73.83 82.52 73.92C82.65 74.02 82.78 74.11 82.91 74.21C83.03 74.32 83.16 74.42 83.27 74.53C83.39 74.65 83.51 74.76 83.61 74.88C83.72 75 83.83 75.12 83.93 75.25C84.03 75.38 84.12 75.51 84.21 75.64C84.3 75.78 84.39 75.91 84.47 76.05C84.55 76.2 84.63 76.34 84.69 76.48C84.76 76.63 84.83 76.78 84.89 76.93C84.95 77.08 85 77.23 85.05 77.39C85.09 77.54 85.13 77.7 85.17 77.86C85.21 78.02 85.24 78.17 85.26 78.33C85.28 78.49 85.3 78.66 85.31 78.82C85.33 78.98 85.33 79.14 85.33 79.3C85.33 79.56 85.32 79.81 85.29 80.06C85.26 80.32 85.22 80.57 85.16 80.82C85.1 81.06 85.03 81.31 84.94 81.55C84.85 81.79 84.75 82.02 84.64 82.25C84.52 82.48 84.39 82.7 84.25 82.91C84.11 83.12 83.96 83.33 83.79 83.52C83.63 83.72 83.46 83.9 83.27 84.08C83.08 84.25 82.89 84.41 82.68 84.56L75.76 90.27C75.69 90.32 75.62 90.38 75.55 90.43C75.48 90.48 75.4 90.52 75.32 90.57C75.25 90.61 75.17 90.65 75.09 90.69C75.01 90.72 74.93 90.76 74.84 90.78C74.76 90.81 74.68 90.84 74.59 90.86C74.5 90.88 74.42 90.9 74.33 90.91C74.24 90.93 74.16 90.94 74.07 90.95C73.98 90.95 73.89 90.95 73.8 90.95C73.72 90.95 73.63 90.95 73.54 90.94C73.45 90.93 73.37 90.92 73.28 90.9C73.19 90.88 73.11 90.86 73.02 90.84C72.94 90.81 72.85 90.78 72.77 90.75C72.69 90.72 72.61 90.69 72.53 90.65C72.45 90.61 72.37 90.57 72.3 90.52C72.22 90.47 72.15 90.43 72.08 90.37C72.01 90.32 71.94 90.27 71.87 90.21L65.13 84.28C64.95 84.13 64.78 83.97 64.62 83.8C64.45 83.63 64.3 83.45 64.16 83.26C64.02 83.07 63.88 82.87 63.76 82.67C63.64 82.47 63.53 82.26 63.43 82.05C63.33 81.83 63.25 81.61 63.17 81.39C63.1 81.16 63.03 80.94 62.98 80.71C62.93 80.48 62.89 80.24 62.87 80.01C62.84 79.77 62.83 79.54 62.83 79.3Z" fill="#FF0010" fill-opacity="1.000000" fill-rule="nonzero"/>
			</g>
			<g clip-path="url(#clip2_4)">
				<path id="path" d="M113.08 49.75L65.08 49.75C64.69 49.75 64.3 49.77 63.91 49.81C63.51 49.85 63.13 49.9 62.74 49.98C62.35 50.06 61.97 50.15 61.6 50.27C61.22 50.38 60.85 50.51 60.49 50.66C60.13 50.81 59.77 50.98 59.42 51.17C59.08 51.35 58.74 51.55 58.41 51.77C58.09 51.99 57.77 52.22 57.47 52.47C57.16 52.72 56.87 52.99 56.6 53.26C56.32 53.54 56.05 53.83 55.81 54.14C55.56 54.44 55.32 54.76 55.1 55.08C54.89 55.41 54.68 55.75 54.5 56.09C54.31 56.44 54.15 56.79 53.99 57.16C53.84 57.52 53.71 57.89 53.6 58.27C53.48 58.64 53.39 59.02 53.31 59.41C53.24 59.79 53.18 60.18 53.14 60.57C53.1 60.96 53.08 61.36 53.08 61.75L53.08 141.75C53.08 142.01 53.09 142.27 53.12 142.53C53.15 142.79 53.18 143.05 53.23 143.31C53.29 143.57 53.35 143.82 53.43 144.07C53.5 144.32 53.59 144.57 53.69 144.81C53.79 145.05 53.9 145.29 54.03 145.52C54.15 145.75 54.28 145.98 54.43 146.19C54.58 146.41 54.73 146.62 54.9 146.82C55.06 147.03 55.24 147.22 55.42 147.41C55.61 147.59 55.8 147.77 56.01 147.93C56.21 148.1 56.42 148.25 56.64 148.4C56.85 148.55 57.08 148.68 57.31 148.81C57.54 148.93 57.78 149.04 58.02 149.14C58.26 149.24 58.51 149.33 58.76 149.41C59.01 149.48 59.26 149.54 59.52 149.6C59.78 149.65 60.04 149.69 60.3 149.71C60.56 149.74 60.82 149.75 61.08 149.75L121.08 149.75C121.34 149.75 121.6 149.72 121.86 149.67C122.12 149.62 122.37 149.55 122.61 149.45C122.86 149.34 123.09 149.22 123.3 149.08C123.52 148.93 123.72 148.76 123.91 148.58C124.1 148.39 124.26 148.19 124.41 147.97C124.55 147.75 124.68 147.52 124.78 147.28C124.88 147.04 124.95 146.79 125 146.53C125.06 146.27 125.08 146.01 125.08 145.75L125.08 61.75C125.08 61.36 125.06 60.96 125.02 60.57C124.99 60.18 124.93 59.79 124.85 59.41C124.77 59.02 124.68 58.64 124.57 58.27C124.45 57.89 124.32 57.52 124.17 57.16C124.02 56.79 123.85 56.44 123.66 56.09C123.48 55.75 123.28 55.41 123.06 55.08C122.84 54.76 122.61 54.44 122.36 54.14C122.11 53.83 121.84 53.54 121.57 53.26C121.29 52.99 121 52.72 120.69 52.47C120.39 52.22 120.08 51.99 119.75 51.77C119.42 51.55 119.09 51.35 118.74 51.17C118.39 50.98 118.04 50.81 117.67 50.66C117.31 50.51 116.94 50.38 116.57 50.27C116.19 50.15 115.81 50.06 115.42 49.98C115.04 49.9 114.65 49.85 114.26 49.81C113.87 49.77 113.47 49.75 113.08 49.75ZM113.38 57.76C113.63 57.78 113.88 57.82 114.12 57.88C114.36 57.95 114.59 58.04 114.82 58.14C115.04 58.25 115.26 58.38 115.46 58.53C115.66 58.68 115.84 58.84 116.01 59.03C116.18 59.21 116.34 59.41 116.47 59.62C116.6 59.83 116.71 60.05 116.81 60.29C116.9 60.52 116.97 60.76 117.01 61.01C117.06 61.25 117.08 61.5 117.08 61.75L117.08 141.75L61.08 141.75L61.08 61.75C61.08 61.49 61.11 61.23 61.16 60.97C61.21 60.71 61.29 60.46 61.39 60.22C61.49 59.98 61.61 59.75 61.76 59.53C61.9 59.31 62.07 59.11 62.25 58.92C62.44 58.74 62.64 58.57 62.86 58.42C63.08 58.28 63.31 58.15 63.55 58.05C63.79 57.95 64.04 57.88 64.3 57.83C64.56 57.77 64.82 57.75 65.08 57.75L113.08 57.75L113.38 57.76Z" fill="#A70202" fill-opacity="1.000000" fill-rule="nonzero"/>
				<path id="path" d="M145.08 89.75L121.08 89.75C120.82 89.75 120.56 89.77 120.3 89.83C120.04 89.88 119.79 89.95 119.55 90.05C119.31 90.15 119.08 90.28 118.86 90.42C118.64 90.57 118.44 90.74 118.25 90.92C118.07 91.11 117.9 91.31 117.76 91.53C117.61 91.75 117.49 91.98 117.39 92.22C117.29 92.46 117.21 92.71 117.16 92.97C117.11 93.23 117.08 93.49 117.08 93.75L117.08 145.75C117.08 146.01 117.11 146.27 117.16 146.53C117.21 146.79 117.29 147.04 117.39 147.28C117.49 147.52 117.61 147.75 117.76 147.97C117.9 148.19 118.07 148.39 118.25 148.58C118.44 148.76 118.64 148.93 118.86 149.08C119.08 149.22 119.31 149.34 119.55 149.45C119.79 149.55 120.04 149.62 120.3 149.67C120.56 149.72 120.82 149.75 121.08 149.75L145.08 149.75C145.34 149.75 145.61 149.74 145.87 149.71C146.13 149.69 146.39 149.65 146.64 149.6C146.9 149.54 147.15 149.48 147.4 149.41C147.65 149.33 147.9 149.24 148.14 149.14C148.39 149.04 148.62 148.93 148.85 148.81C149.08 148.68 149.31 148.55 149.53 148.4C149.74 148.25 149.95 148.1 150.16 147.93C150.36 147.77 150.55 147.59 150.74 147.41C150.92 147.22 151.1 147.03 151.27 146.82C151.43 146.62 151.59 146.41 151.73 146.19C151.88 145.98 152.01 145.75 152.14 145.52C152.26 145.29 152.37 145.05 152.47 144.81C152.57 144.57 152.66 144.32 152.74 144.07C152.81 143.82 152.88 143.57 152.93 143.31C152.98 143.05 153.02 142.79 153.04 142.53C153.07 142.27 153.08 142.01 153.08 141.75L153.08 97.75C153.08 97.49 153.07 97.23 153.04 96.97C153.02 96.7 152.98 96.45 152.93 96.19C152.88 95.93 152.81 95.68 152.74 95.43C152.66 95.18 152.57 94.93 152.47 94.69C152.37 94.45 152.26 94.21 152.14 93.98C152.01 93.75 151.88 93.52 151.73 93.3C151.59 93.09 151.43 92.88 151.27 92.67C151.1 92.47 150.92 92.28 150.74 92.09C150.55 91.91 150.36 91.73 150.16 91.57C149.95 91.4 149.74 91.24 149.53 91.1C149.31 90.95 149.08 90.82 148.85 90.69C148.62 90.57 148.39 90.46 148.14 90.36C147.9 90.26 147.65 90.17 147.4 90.09C147.15 90.02 146.9 89.95 146.64 89.9C146.39 89.85 146.13 89.81 145.87 89.79C145.61 89.76 145.34 89.75 145.08 89.75ZM125.08 141.75L125.08 97.75L145.08 97.75L145.08 141.75L125.08 141.75Z" fill="#A70202" fill-opacity="1.000000" fill-rule="nonzero"/>
				<path id="path" d="M93.08 73.75L93.08 89.75L109.08 89.75L109.08 97.75L93.08 97.75L93.08 113.75L85.08 113.75L85.08 97.75L69.08 97.75L69.08 89.75L85.08 89.75L85.08 73.75L93.08 73.75Z" fill="#00B386" fill-opacity="1.000000" fill-rule="nonzero"/>
				<g clip-path="url(#clip2_10)">
					<path id="path" d="M123.19 118.57L124.67 118.57C125.07 118.57 125.39 118.54 125.63 118.47C125.88 118.39 126.11 118.26 126.35 118.06L126.78 117.63C126.96 117.45 127.15 117.24 127.35 117.01C127.54 116.77 127.75 116.54 127.95 116.29C128.16 116.05 128.35 115.82 128.53 115.6C128.89 115.15 129.22 114.98 129.51 115.08C129.79 115.18 130.01 115.39 130.15 115.71L131.34 118.98C131.95 117.27 132.49 115.72 132.96 114.34C133.16 113.74 133.36 113.16 133.56 112.59C133.75 112.03 133.93 111.51 134.1 111.03C134.26 110.55 134.39 110.16 134.5 109.84C134.61 109.53 134.67 109.32 134.69 109.23C134.78 108.93 134.92 108.68 135.1 108.49C135.28 108.3 135.47 108.21 135.69 108.21C135.92 108.21 136.17 108.27 136.42 108.41C136.67 108.54 136.83 108.82 136.9 109.23C136.92 109.34 136.96 109.63 137.01 110.1C137.07 110.56 137.14 111.15 137.23 111.85C137.32 112.55 137.41 113.33 137.51 114.19C137.61 115.04 137.71 115.91 137.82 116.79C138.06 118.86 138.33 121.18 138.63 123.73C139.03 122.44 139.39 121.26 139.71 120.19C139.84 119.74 139.97 119.3 140.1 118.86C140.24 118.42 140.37 118.01 140.48 117.64C140.6 117.27 140.69 116.96 140.77 116.71C140.84 116.46 140.89 116.3 140.93 116.23C141.02 115.94 141.13 115.72 141.25 115.58C141.38 115.43 141.55 115.33 141.76 115.28C142.18 115.17 142.49 115.23 142.7 115.46C142.9 115.68 143.01 115.91 143.01 116.14C143.01 116.34 142.99 116.51 142.95 116.66C142.93 116.73 142.92 116.79 142.92 116.85L143.9 119.49C143.92 119.47 143.94 119.44 143.98 119.38C144.03 119.29 144.12 119.11 144.25 118.82C144.39 118.51 144.63 118.31 144.96 118.21C145.3 118.11 145.62 118.07 145.92 118.09C146.12 118.11 146.32 118.12 146.52 118.12L147.11 118.12L147.76 118.12L147.76 120.17C147.65 120.19 147.54 120.19 147.43 120.19L146.73 120.19C146.48 120.18 146.25 120.24 146.03 120.4C145.81 120.55 145.66 120.7 145.57 120.84C145.5 120.99 145.37 121.27 145.19 121.68C145.01 122.09 144.85 122.52 144.71 122.95C144.64 123.16 144.52 123.31 144.36 123.38C144.19 123.45 144.03 123.48 143.86 123.48C143.69 123.47 143.52 123.42 143.37 123.33C143.22 123.24 143.11 123.13 143.06 123C143.01 122.88 142.92 122.66 142.79 122.34C142.66 122.03 142.54 121.71 142.41 121.38C142.25 121 142.09 120.6 141.93 120.17C141.46 121.66 141.03 123.04 140.66 124.3C140.5 124.84 140.33 125.37 140.17 125.89C140.01 126.41 139.86 126.9 139.73 127.34C139.59 127.78 139.48 128.15 139.39 128.46C139.3 128.76 139.24 128.97 139.23 129.08C139.14 129.51 138.97 129.85 138.71 130.1C138.46 130.36 138.16 130.47 137.8 130.45C137.42 130.42 137.15 130.26 136.99 129.97C136.82 129.68 136.72 129.35 136.69 128.97C136.69 128.88 136.67 128.6 136.62 128.13C136.58 127.66 136.52 127.07 136.45 126.35C136.37 125.63 136.3 124.83 136.22 123.95C136.14 123.07 136.05 122.17 135.96 121.25C135.76 119.11 135.53 116.71 135.26 114.07C134.75 115.54 134.3 116.86 133.91 118.03C133.75 118.54 133.58 119.03 133.41 119.52C133.24 120.01 133.08 120.45 132.95 120.84C132.81 121.24 132.7 121.57 132.61 121.84L132.45 122.33C132.36 122.56 132.24 122.78 132.09 122.98C131.93 123.17 131.69 123.26 131.37 123.25C131.05 123.25 130.8 123.13 130.64 122.91C130.48 122.68 130.35 122.43 130.26 122.14C130.21 121.99 130.11 121.72 129.97 121.3C129.82 120.89 129.67 120.46 129.51 120.03C129.31 119.53 129.1 118.97 128.89 118.36C128.76 118.52 128.62 118.68 128.48 118.84C128.35 118.99 128.22 119.15 128.08 119.32C127.93 119.49 127.79 119.65 127.64 119.82C127.36 120.16 127.09 120.39 126.83 120.52C126.58 120.64 126.28 120.69 125.94 120.65C125.76 120.64 125.52 120.63 125.23 120.64C124.93 120.65 124.63 120.65 124.32 120.65C123.98 120.67 123.6 120.68 123.19 120.68L123.19 118.57Z" fill="#000000" fill-opacity="0.544000" fill-rule="nonzero"/>
				</g>
			</g>
		</g>
	</g>
</svg>
